<!DOCTYPE svg PUBLIC "-//W3C//DTD SVG 20010904//EN" "http://www.w3.org/TR/2001/REC-SVG-20010904/DTD/svg10.dtd">
<svg version="1.0" xmlns="http://www.w3.org/2000/svg" width="1024px" height="952px" viewBox="0 0 10240 9520" preserveAspectRatio="xMidYMid meet">
<g id="layer101" fill="#000000" stroke="none">
 <path d="M8760 9000 c-41 -41 -15 -114 45 -126 66 -12 110 66 69 124 -20 29 -85 31 -114 2z"/>
 <path d="M5184 8370 c-30 -12 -64 -58 -64 -88 0 -20 4 -23 23 -18 12 3 28 6 35 6 6 0 12 7 12 15 0 35 92 48 129 18 12 -10 24 -35 28 -57 l6 -39 -24 16 c-14 11 -43 17 -75 17 -91 0 -144 -65 -144 -177 0 -71 28 -131 72 -158 39 -23 119 -25 144 -4 13 11 18 11 21 2 3 -7 20 -13 40 -13 l35 0 -4 199 c-3 223 -8 237 -79 273 -36 19 -118 23 -155 8z m151 -231 c19 -36 19 -112 0 -148 -20 -40 -65 -57 -101 -39 -37 17 -54 52 -54 110 0 61 17 98 54 113 39 17 82 2 101 -36z"/>
 <path d="M2078 8240 c-88 -26 -142 -117 -141 -240 0 -115 35 -180 118 -222 50 -26 156 -29 201 -5 59 31 111 110 83 128 -29 19 -57 9 -78 -26 -23 -39 -54 -55 -109 -55 -91 0 -148 82 -140 201 7 86 33 131 90 154 72 29 145 -2 175 -73 12 -28 18 -33 36 -28 12 3 28 6 36 6 18 0 7 44 -24 91 -43 66 -154 97 -247 69z"/>
 <path d="M2474 8235 c-47 -24 -54 -51 -54 -205 l0 -140 35 0 35 0 0 133 c0 117 2 136 18 150 26 24 66 21 99 -7 28 -24 28 -26 31 -150 l4 -126 34 0 34 0 0 175 0 175 -35 0 c-26 0 -35 -4 -35 -17 0 -14 -2 -14 -20 2 -27 25 -107 30 -146 10z"/>
 <path d="M2980 8237 c-32 -16 -38 -41 -39 -174 -1 -106 -2 -113 -21 -113 -16 0 -20 -7 -20 -30 0 -23 5 -30 19 -30 16 0 20 -8 23 -42 3 -35 8 -45 36 -61 l32 -19 0 61 0 61 30 0 c27 0 30 3 30 30 0 27 -3 30 -30 30 l-31 0 3 113 3 112 26 3 c20 2 28 10 32 30 3 15 0 30 -6 34 -18 12 -59 9 -87 -5z"/>
 <path d="M3168 8234 c-45 -24 -52 -49 -56 -201 l-4 -143 36 0 36 0 0 121 c0 149 12 179 73 179 16 0 38 -10 52 -25 24 -23 25 -30 25 -150 l0 -125 35 0 35 0 0 175 0 175 -30 0 c-20 0 -30 -5 -30 -15 0 -12 -6 -11 -32 5 -39 23 -102 25 -140 4z"/>
 <path d="M3714 8216 c-38 -38 -43 -70 -19 -116 20 -39 40 -48 137 -65 44 -8 83 -17 86 -20 3 -3 1 -18 -4 -32 -19 -54 -112 -56 -142 -3 -14 24 -21 28 -47 23 -39 -8 -38 -6 -21 -46 20 -50 65 -71 148 -70 75 0 113 18 128 59 6 14 10 77 10 140 0 64 5 124 10 135 10 17 7 19 -30 19 -28 0 -40 -4 -40 -15 0 -11 -8 -11 -42 5 -24 11 -65 20 -91 20 -42 0 -54 -5 -83 -34z m140 -30 c39 -16 66 -51 66 -84 0 -22 -3 -24 -32 -18 -18 4 -50 9 -71 13 -48 7 -77 44 -56 69 11 13 38 29 57 33 1 1 18 -5 36 -13z"/>
 <path d="M4535 8238 c-94 -33 -145 -117 -145 -239 0 -133 59 -214 176 -239 153 -33 278 75 278 240 0 156 -90 252 -234 249 -25 0 -58 -5 -75 -11z m165 -76 c39 -28 70 -98 70 -159 0 -65 -17 -108 -59 -148 -29 -27 -39 -30 -94 -30 -101 0 -147 49 -154 164 -4 55 -1 74 19 111 42 82 147 112 218 62z"/>
 <path d="M5534 8240 c-67 -27 -74 -130 -13 -178 12 -9 157 -42 187 -42 2 0 2 -12 0 -27 -7 -59 -117 -69 -145 -13 -7 14 -17 25 -23 24 -5 -1 -19 -2 -30 -2 -28 -3 -26 -34 5 -70 18 -21 40 -34 75 -41 71 -15 160 4 176 37 5 10 11 76 14 147 4 72 10 138 14 148 7 14 3 17 -28 17 -22 0 -39 -6 -42 -14 -5 -12 -12 -11 -47 5 -44 20 -107 24 -143 9z m112 -50 c26 0 64 -47 64 -80 0 -30 0 -30 -42 -24 -24 4 -59 12 -78 18 -30 9 -35 16 -35 41 0 21 7 33 25 42 14 7 31 11 38 8 8 -3 20 -5 28 -5z"/>
 <path d="M6745 8241 c-26 -11 -51 -40 -58 -69 -8 -34 11 -90 37 -107 17 -11 162 -45 194 -45 1 0 2 -11 2 -24 0 -31 -20 -47 -69 -53 -33 -5 -44 -1 -64 19 -13 13 -26 29 -28 35 -2 6 -18 8 -35 6 -26 -4 -30 -8 -26 -28 17 -89 206 -124 269 -50 21 24 23 36 23 145 0 65 4 130 10 144 9 25 8 26 -26 26 -21 0 -37 -6 -40 -14 -5 -12 -12 -11 -47 5 -44 19 -107 24 -142 10z m131 -63 c24 -11 44 -48 44 -79 0 -19 -4 -20 -42 -14 -24 4 -59 12 -78 19 -30 9 -35 16 -35 41 0 49 49 64 111 33z"/>
 <path d="M7105 8226 c-24 -24 -25 -30 -25 -151 0 -118 -1 -125 -20 -125 -16 0 -20 -7 -20 -30 0 -23 4 -30 20 -30 17 0 20 -7 20 -39 0 -32 5 -43 29 -60 16 -12 32 -21 35 -21 3 0 6 27 6 60 l0 60 30 0 c27 0 30 3 30 30 0 27 -3 30 -30 30 l-30 0 0 115 0 115 31 0 c28 0 30 2 27 33 -3 29 -6 32 -40 35 -29 3 -43 -2 -63 -22z"/>
 <path d="M7460 8232 c-55 -29 -82 -90 -78 -179 3 -54 9 -79 24 -100 68 -91 221 -88 277 5 40 70 29 197 -21 245 -52 50 -139 62 -202 29z m143 -68 c46 -46 45 -155 -2 -198 -9 -9 -32 -19 -49 -22 -27 -6 -37 -1 -68 30 -36 36 -36 37 -32 103 4 57 8 69 32 89 37 33 86 32 119 -2z"/>
 <path d="M2790 8000 l0 -240 30 0 30 0 0 240 0 240 -30 0 -30 0 0 -240z"/>
 <path d="M3480 8065 l0 -175 30 0 c24 0 30 4 30 23 1 20 2 20 11 4 16 -27 52 -37 94 -26 29 8 35 14 30 27 -4 9 -10 25 -12 35 -4 12 -11 16 -22 11 -25 -11 -53 -6 -70 11 -13 12 -17 43 -19 140 l-4 125 -34 0 -34 0 0 -175z"/>
 <path d="M4070 8000 l0 -240 30 0 30 0 0 240 0 240 -30 0 -30 0 0 -240z"/>
 <path d="M4910 8065 l0 -175 30 0 c21 0 30 5 30 17 0 14 2 14 20 -2 13 -12 35 -19 57 -18 47 1 60 15 47 50 -11 28 -15 30 -46 18 -11 -5 -26 2 -43 19 -24 24 -25 30 -25 146 l0 120 -35 0 -35 0 0 -175z"/>
 <path d="M5860 8065 l0 -175 30 0 c23 0 30 4 30 20 0 20 0 20 30 -2 22 -16 43 -22 78 -21 103 1 122 36 122 223 l0 130 -35 0 -35 0 0 -128 c0 -116 -2 -131 -20 -147 -28 -25 -76 -23 -103 4 -20 19 -22 34 -25 146 l-4 125 -34 0 -34 0 0 -175z"/>
 <path d="M6230 8065 l0 -175 35 0 35 0 0 175 0 175 -35 0 -35 0 0 -175z"/>
 <path d="M6340 8214 c0 -18 30 -59 106 -145 l105 -119 -95 0 -96 0 0 -30 0 -30 145 0 c144 0 145 0 145 23 0 14 -39 67 -108 147 l-108 125 113 -3 113 -4 0 31 0 31 -160 0 -160 0 0 -26z"/>
 <path d="M7250 8065 l0 -175 35 0 35 0 0 175 0 175 -35 0 -35 0 0 -175z"/>
 <path d="M7770 8065 l0 -175 30 0 c20 0 30 5 30 15 0 14 3 14 23 1 47 -31 130 -24 168 13 l29 29 0 146 0 146 -30 0 -30 0 -1 -97 c0 -139 -8 -175 -41 -191 -23 -10 -33 -10 -62 2 -44 18 -56 57 -56 189 l0 97 -30 0 -30 0 0 -175z"/>
 <path d="M8783 8180 c-44 -18 -57 -86 -23 -120 29 -29 94 -27 114 2 46 65 -19 148 -91 118z"/>
 <path d="M6230 7800 c0 -39 1 -40 35 -40 34 0 35 1 35 40 0 39 -1 40 -35 40 -34 0 -35 -1 -35 -40z"/>
 <path d="M7250 7800 c0 -39 1 -40 35 -40 34 0 35 1 35 40 0 39 -1 40 -35 40 -34 0 -35 -1 -35 -40z"/>
 <path d="M3866 7604 c-4 -9 0 -24 9 -34 19 -21 19 -50 0 -50 -10 0 -15 -11 -15 -35 0 -34 1 -35 40 -35 l40 0 0 50 c0 55 -20 104 -45 114 -22 8 -22 8 -29 -10z"/>
 <path d="M900 7507 c-52 -35 -73 -78 -73 -155 -1 -122 52 -186 148 -179 28 2 58 7 68 11 15 7 17 1 17 -68 l0 -76 35 0 35 0 0 240 0 240 -30 0 c-16 0 -30 -5 -30 -10 0 -6 -13 -4 -30 5 -43 22 -101 19 -140 -8z m138 -62 c27 -34 36 -93 23 -142 -12 -45 -34 -68 -73 -78 -40 -10 -84 36 -93 97 -7 49 13 113 42 136 29 21 79 15 101 -13z"/>
 <path d="M1259 7515 c-39 -21 -49 -63 -49 -211 l0 -134 35 0 35 0 0 133 c0 149 7 167 66 167 66 -1 84 -42 84 -191 l0 -109 35 0 35 0 0 175 0 175 -30 0 c-20 0 -30 -5 -30 -15 0 -12 -6 -11 -32 5 -39 24 -111 26 -149 5z"/>
 <path d="M1632 7510 c-95 -59 -95 -262 0 -320 40 -24 126 -27 168 -5 33 17 65 69 56 91 -7 19 -66 19 -66 0 0 -8 -12 -24 -27 -36 -33 -25 -66 -20 -103 16 -22 21 -25 33 -25 93 0 60 3 73 24 95 45 48 116 31 135 -31 8 -24 39 -31 64 -14 18 11 -5 67 -42 101 -38 34 -136 40 -184 10z"/>
 <path d="M1919 7501 c-47 -48 -36 -130 22 -161 14 -8 163 -40 186 -40 1 0 -2 -12 -6 -27 -16 -61 -123 -66 -150 -7 -10 22 -16 25 -39 19 -35 -9 -36 -9 -25 -42 16 -48 66 -73 144 -73 80 0 114 13 128 49 5 14 12 80 14 146 2 66 8 128 12 138 6 14 2 17 -29 17 -22 0 -39 -6 -42 -14 -4 -11 -12 -10 -42 5 -22 12 -57 19 -90 19 -46 0 -58 -4 -83 -29z m146 -35 c37 -16 55 -42 55 -81 0 -20 -4 -25 -17 -21 -10 2 -38 8 -63 11 -75 12 -104 57 -58 89 28 20 39 20 83 2z"/>
 <path d="M2309 7511 c-22 -17 -23 -27 -27 -150 -4 -120 -6 -131 -23 -131 -14 0 -19 -7 -19 -30 0 -23 5 -30 19 -30 16 0 20 -8 23 -40 2 -34 9 -45 36 -61 l32 -21 0 61 0 61 30 0 c27 0 30 3 30 30 0 27 -3 30 -30 30 l-31 0 3 113 3 112 26 3 c20 2 28 10 32 30 3 15 3 30 0 34 -9 16 -81 8 -104 -11z"/>
 <path d="M2663 7514 c-55 -27 -78 -77 -78 -164 0 -88 18 -128 68 -159 47 -29 139 -29 185 -1 99 61 94 269 -8 322 -43 22 -123 23 -167 2z m128 -54 c56 -31 66 -157 16 -208 -55 -55 -137 -22 -153 63 -20 107 56 188 137 145z"/>
 <path d="M3351 7504 c-27 -22 -31 -33 -31 -73 0 -72 39 -102 152 -116 68 -9 81 -16 76 -46 -8 -58 -115 -63 -144 -8 -13 26 -19 30 -42 24 -36 -9 -37 -11 -26 -42 17 -49 67 -73 150 -73 63 0 77 3 101 24 27 24 28 27 34 158 3 73 9 141 13 151 7 14 3 17 -28 17 -22 0 -39 -6 -42 -14 -4 -11 -12 -10 -42 5 -55 29 -133 26 -171 -7z m144 -38 c18 -8 38 -23 44 -34 13 -24 15 -72 4 -72 -37 2 -137 31 -144 42 -15 23 -10 46 13 62 28 20 39 20 83 2z"/>
 <path d="M4291 7508 c-54 -28 -79 -60 -88 -111 l-6 -37 37 0 c24 0 36 5 36 14 0 8 12 28 26 45 33 39 90 56 144 41 50 -13 70 -34 70 -70 0 -38 -28 -56 -127 -82 -91 -23 -135 -47 -151 -83 -29 -64 1 -145 63 -171 44 -18 158 -18 193 0 42 22 72 60 79 100 6 35 5 36 -28 36 -28 0 -36 -6 -49 -33 -20 -42 -54 -59 -113 -54 -54 5 -87 29 -87 63 0 31 29 48 125 75 137 37 166 62 167 144 1 50 -17 83 -66 119 -43 33 -167 35 -225 4z"/>
 <path d="M4709 7507 c-48 -32 -69 -79 -69 -155 0 -72 16 -116 54 -152 22 -20 40 -25 94 -28 57 -3 71 -1 95 18 39 31 63 80 45 91 -25 17 -55 9 -66 -16 -17 -37 -59 -50 -100 -31 -38 19 -52 49 -52 117 0 81 28 119 86 119 38 0 61 -16 72 -50 11 -30 25 -36 56 -24 20 8 20 27 1 65 -36 68 -147 92 -216 46z"/>
 <path d="M5190 7512 c-102 -53 -107 -260 -8 -322 48 -31 156 -25 193 10 39 36 55 73 55 125 l0 45 -125 0 c-69 0 -125 2 -125 5 0 3 6 21 14 40 17 40 42 55 90 55 28 0 40 -7 58 -30 16 -23 30 -30 55 -30 37 0 40 8 18 51 -35 66 -147 92 -225 51z m170 -216 c0 -8 -11 -27 -24 -42 -42 -50 -132 -27 -149 37 -5 18 1 19 84 19 71 0 89 -3 89 -14z"/>
 <path d="M5899 7511 c-23 -18 -24 -27 -27 -150 -3 -121 -5 -131 -23 -131 -14 0 -19 -7 -19 -30 0 -23 5 -30 19 -30 16 0 20 -8 23 -40 2 -34 9 -45 36 -61 l32 -21 0 61 0 61 30 0 c27 0 30 3 30 30 0 27 -3 30 -30 30 l-31 0 3 113 3 112 26 3 c21 2 28 10 31 33 3 16 2 31 0 34 -13 13 -82 3 -103 -14z"/>
 <path d="M6580 7512 c-99 -53 -103 -263 -6 -324 25 -15 45 -18 100 -16 63 4 71 6 98 37 37 41 35 75 -4 79 -22 3 -30 -2 -39 -22 -25 -53 -100 -55 -134 -3 -36 55 -26 161 18 192 35 24 82 19 106 -11 12 -15 21 -33 21 -40 0 -16 38 -18 60 -4 24 15 -19 93 -63 113 -46 22 -114 21 -157 -1z"/>
 <path d="M7063 7518 c-12 -6 -29 -26 -39 -46 -13 -29 -14 -42 -5 -72 15 -50 43 -66 140 -83 45 -8 84 -17 87 -20 4 -3 4 -17 0 -31 -4 -18 -17 -28 -44 -36 -47 -14 -88 -1 -104 35 -10 22 -16 25 -42 19 -17 -3 -32 -7 -34 -9 -7 -6 19 -53 43 -75 24 -23 35 -25 116 -25 79 0 91 2 111 23 21 21 23 34 28 160 3 75 9 143 13 150 6 9 -2 12 -32 12 -30 0 -41 -4 -41 -15 0 -12 -6 -12 -37 5 -41 22 -123 26 -160 8z m126 -49 c33 -12 61 -53 61 -90 0 -17 -4 -20 -22 -16 -13 3 -41 9 -63 13 -22 3 -48 11 -57 16 -25 12 -22 54 4 72 27 19 35 19 77 5z"/>
 <path d="M7820 7507 c-53 -35 -74 -80 -74 -156 0 -122 53 -185 149 -178 28 2 58 7 68 11 15 7 17 1 17 -68 l0 -76 35 0 35 0 0 240 0 240 -30 0 c-16 0 -30 -5 -30 -10 0 -6 -13 -4 -30 5 -43 22 -101 19 -140 -8z m138 -62 c27 -34 36 -93 23 -142 -12 -45 -34 -68 -73 -78 -40 -10 -84 36 -93 97 -7 49 13 113 42 136 29 21 79 15 101 -13z"/>
 <path d="M410 7280 l0 -240 178 2 177 3 3 33 3 32 -140 0 -141 0 0 65 0 65 130 0 130 0 0 35 0 35 -130 0 -130 0 0 75 0 75 145 0 145 0 0 30 0 30 -185 0 -185 0 0 -240z"/>
 <path d="M2460 7345 l0 -175 30 0 30 0 0 175 0 175 -30 0 -30 0 0 -175z"/>
 <path d="M2970 7345 l0 -175 30 0 c24 0 30 4 30 21 l0 20 26 -20 c20 -15 41 -21 80 -21 45 0 59 5 86 29 l33 29 3 146 4 146 -36 0 -36 0 0 -117 c0 -145 -9 -167 -67 -171 -34 -3 -44 1 -62 24 -19 24 -21 40 -21 145 l0 119 -35 0 -35 0 0 -175z"/>
 <path d="M3700 7280 l0 -240 35 0 35 0 0 240 0 240 -35 0 -35 0 0 -240z"/>
 <path d="M4980 7345 l0 -175 35 0 35 0 0 175 0 175 -35 0 -35 0 0 -175z"/>
 <path d="M5500 7345 l0 -175 30 0 c20 0 30 5 30 16 0 14 2 14 22 0 14 -10 44 -16 81 -16 51 0 62 4 88 29 l29 29 0 146 0 146 -35 0 -35 0 0 -129 c0 -145 -6 -161 -63 -161 -68 1 -87 43 -87 192 l0 98 -30 0 -30 0 0 -175z"/>
 <path d="M6050 7345 l0 -175 30 0 30 0 0 175 0 175 -30 0 -30 0 0 -175z"/>
 <path d="M6210 7375 l0 -145 -25 0 c-21 0 -25 -5 -25 -30 0 -25 4 -30 25 -30 22 0 25 -4 25 -39 0 -24 8 -48 21 -65 19 -25 25 -26 115 -26 l94 0 0 40 c0 39 -1 40 -35 40 -33 0 -35 -2 -36 -32 -1 -24 -3 -27 -6 -10 -4 18 -11 22 -39 22 -28 0 -36 5 -44 26 -15 39 -13 44 25 44 32 0 35 2 35 30 0 28 -3 30 -35 30 l-35 0 0 145 0 145 -30 0 -30 0 0 -145z"/>
 <path d="M6370 7345 l0 -175 35 0 35 0 0 175 0 175 -35 0 -35 0 0 -175z"/>
 <path d="M7400 7345 l0 -175 30 0 c24 0 30 4 30 21 l0 20 26 -20 c20 -15 41 -21 80 -21 45 0 59 5 86 29 l33 29 3 146 4 146 -36 0 -36 0 0 -117 c0 -145 -9 -167 -67 -171 -34 -3 -44 1 -62 24 -19 24 -21 40 -21 145 l0 119 -35 0 -35 0 0 -175z"/>
 <path d="M8761 7404 c-28 -35 -26 -69 4 -99 48 -48 125 -16 125 51 0 67 -88 100 -129 48z"/>
 <path d="M2460 7080 c0 -38 2 -40 30 -40 28 0 30 2 30 40 0 38 -2 40 -30 40 -28 0 -30 -2 -30 -40z"/>
 <path d="M4980 7080 c0 -39 1 -40 35 -40 34 0 35 1 35 40 0 39 -1 40 -35 40 -34 0 -35 -1 -35 -40z"/>
 <path d="M6050 7080 c0 -38 2 -40 30 -40 28 0 30 2 30 40 0 38 -2 40 -30 40 -28 0 -30 -2 -30 -40z"/>
 <path d="M3900 6791 c-68 -37 -75 -62 -78 -278 l-4 -193 35 0 35 0 4 178 c3 204 10 223 78 243 31 9 49 9 80 0 68 -20 75 -39 78 -243 l4 -178 35 0 35 0 -4 194 c-3 213 -5 221 -72 270 -40 30 -176 34 -226 7z"/>
 <path d="M4290 6630 l0 -180 30 0 c20 0 30 5 30 15 0 14 4 14 32 -1 49 -25 135 -15 165 20 22 26 23 34 23 177 l0 149 -30 0 -30 0 0 -114 c0 -112 -9 -163 -33 -178 -26 -16 -74 -8 -97 17 -21 22 -23 36 -28 150 l-5 125 -28 0 -29 0 0 -180z"/>
 <path d="M4650 6630 l0 -180 35 0 35 0 0 180 0 180 -35 0 -35 0 0 -180z"/>
 <path d="M4830 6790 c-18 -18 -20 -33 -20 -150 0 -123 -1 -130 -20 -130 -16 0 -20 -7 -20 -30 0 -23 4 -30 20 -30 17 0 20 -7 20 -39 0 -30 6 -44 22 -55 39 -28 48 -21 48 39 0 54 0 55 30 55 27 0 30 3 30 30 0 27 -3 30 -30 30 l-30 0 0 115 0 116 30 6 c25 4 30 10 30 34 0 28 -2 29 -45 29 -32 0 -51 -6 -65 -20z"/>
 <path d="M5055 6801 c-38 -17 -74 -66 -85 -115 -29 -131 39 -236 153 -236 96 0 152 51 164 149 l6 51 -131 0 c-130 0 -130 0 -124 23 16 65 70 96 127 73 18 -8 36 -24 40 -35 5 -17 15 -21 46 -21 44 0 44 1 25 38 -30 57 -62 76 -134 79 -37 2 -76 -1 -87 -6z m155 -229 c0 -37 -49 -67 -103 -63 -22 1 -67 45 -67 66 0 12 15 15 85 15 76 0 85 -2 85 -18z"/>
 <path d="M5402 6790 c-85 -52 -98 -232 -22 -305 38 -37 122 -47 164 -20 l26 17 0 -81 0 -81 30 0 30 0 0 245 0 245 -30 0 c-20 0 -30 -5 -30 -16 0 -14 -2 -14 -22 0 -32 23 -106 20 -146 -4z m117 -45 c38 -19 54 -63 49 -130 -7 -84 -57 -124 -123 -99 -46 18 -62 149 -24 198 18 22 45 41 67 45 2 1 16 -6 31 -14z"/>
 <path d="M5904 6797 c-2 -7 -3 -116 -2 -242 l3 -230 38 0 37 0 120 180 120 180 0 -182 0 -183 35 0 35 0 0 245 0 245 -37 0 c-38 0 -38 -1 -158 -182 l-120 -181 -3 181 -2 182 -31 0 c-16 0 -32 -6 -35 -13z"/>
 <path d="M6398 6795 c-30 -17 -50 -70 -41 -107 13 -54 59 -80 158 -93 67 -8 79 -17 71 -48 -13 -54 -133 -52 -151 2 -6 21 -26 25 -57 13 -15 -6 -15 -11 -3 -39 21 -49 68 -73 145 -73 47 0 74 6 98 20 17 11 33 21 33 22 1 2 5 66 9 143 3 77 10 148 14 158 7 14 3 17 -29 17 -28 0 -38 -5 -42 -19 -5 -19 -5 -19 -36 0 -39 23 -129 25 -169 4z m142 -50 c34 -17 50 -43 50 -79 0 -23 -3 -24 -37 -19 -83 13 -118 28 -121 52 -5 29 24 61 55 61 13 0 37 -7 53 -15z"/>
 <path d="M6775 6794 c-18 -13 -20 -29 -23 -149 -3 -125 -5 -135 -23 -135 -14 0 -19 -7 -19 -30 0 -23 4 -30 20 -30 17 0 20 -7 20 -39 0 -30 5 -42 25 -55 39 -25 45 -20 45 39 0 54 0 55 30 55 27 0 30 3 30 30 0 27 -3 30 -30 30 l-30 0 0 115 0 116 30 6 c25 4 30 10 30 34 0 27 -2 29 -42 29 -24 0 -52 -7 -63 -16z"/>
 <path d="M6920 6630 l0 -180 35 0 35 0 0 180 0 180 -35 0 -35 0 0 -180z"/>
 <path d="M7120 6788 c-54 -37 -72 -81 -68 -169 3 -64 7 -81 30 -111 34 -44 82 -62 154 -56 98 8 154 90 140 207 -4 30 -14 67 -24 83 -38 67 -165 91 -232 46z m147 -54 c22 -14 43 -68 43 -112 0 -98 -100 -151 -162 -85 -32 34 -34 149 -3 183 37 41 73 45 122 14z"/>
 <path d="M7440 6630 l0 -180 30 0 c20 0 30 5 30 15 0 14 4 14 32 -1 49 -25 135 -15 165 20 22 26 23 34 23 177 l0 149 -29 0 -29 0 -4 -129 c-3 -109 -7 -133 -22 -150 -27 -30 -76 -28 -107 5 -22 24 -24 35 -28 150 l-3 124 -29 0 -29 0 0 -180z"/>
 <path d="M7838 6795 c-28 -16 -58 -62 -58 -90 0 -26 63 -20 75 7 22 49 111 60 138 17 19 -31 -1 -48 -87 -74 -95 -29 -116 -48 -116 -106 0 -42 33 -84 75 -95 45 -11 133 1 156 22 30 27 43 65 27 76 -24 15 -53 8 -63 -14 -13 -27 -57 -40 -96 -26 -30 10 -39 38 -16 55 6 6 44 18 82 29 87 23 115 48 115 103 0 31 -7 49 -29 73 -27 30 -34 33 -102 35 -53 2 -82 -1 -101 -12z"/>
 <path d="M8761 6734 c-28 -35 -26 -69 4 -99 48 -48 125 -16 125 51 0 67 -88 100 -129 48z"/>
 <path d="M4650 6360 c0 -39 1 -40 35 -40 34 0 35 1 35 40 0 39 -1 40 -35 40 -34 0 -35 -1 -35 -40z"/>
 <path d="M6920 6360 c0 -39 1 -40 35 -40 34 0 35 1 35 40 0 39 -1 40 -35 40 -34 0 -35 -1 -35 -40z"/>
 <path d="M8760 6148 c-62 -66 31 -164 103 -108 34 27 37 80 7 110 -27 27 -83 27 -110 -2z"/>
 <path d="M8765 5605 c-30 -30 -32 -64 -4 -99 26 -33 79 -36 109 -6 30 30 27 83 -6 109 -35 28 -69 26 -99 -4z"/>
 <path d="M2990 5475 l0 -95 2530 0 2530 0 0 95 0 95 -2530 0 -2530 0 0 -95z"/>
 <path d="M3200 5180 l0 -90 2310 0 2310 0 0 90 0 90 -2310 0 -2310 0 0 -90z"/>
 <path d="M8765 5145 c-27 -26 -31 -54 -14 -88 16 -30 28 -37 67 -37 69 0 100 87 46 129 -35 28 -69 26 -99 -4z"/>
 <path d="M3440 4885 l0 -95 2080 0 2080 0 0 95 0 95 -2080 0 -2080 0 0 -95z"/>
 <path d="M8765 4725 c-30 -30 -32 -64 -4 -99 26 -33 79 -36 109 -6 30 30 27 83 -6 109 -35 28 -69 26 -99 -4z"/>
 <path d="M3776 4700 c-40 -13 -74 -47 -86 -89 -6 -23 -10 -353 -10 -883 l0 -848 60 0 60 0 2 858 3 857 25 0 25 0 3 -857 2 -858 60 0 60 0 0 869 0 868 -23 34 c-34 51 -108 70 -181 49z"/>
 <path d="M4370 3795 l0 -915 45 0 c25 0 45 1 46 3 0 1 22 189 49 417 l48 415 1 -417 1 -418 50 0 50 0 0 915 0 915 -50 0 c-45 0 -50 -2 -51 -22 0 -13 -22 -232 -48 -488 l-49 -465 -1 488 -1 487 -45 0 -45 0 0 -915z"/>
 <path d="M5060 3795 l0 -915 125 0 125 0 0 50 0 50 -60 0 -60 0 0 350 0 350 60 0 60 0 0 55 0 55 -60 0 -60 0 0 405 0 405 75 0 75 0 0 55 0 55 -140 0 -140 0 0 -915z"/>
 <path d="M5785 4703 c-35 -10 -63 -34 -79 -68 -13 -27 -16 -75 -16 -279 l0 -246 60 0 60 0 0 228 c0 176 3 232 13 247 32 42 37 8 37 -235 0 -263 -2 -281 -70 -520 -94 -330 -92 -320 -97 -590 -4 -222 -2 -248 14 -279 25 -48 63 -73 121 -79 60 -5 111 16 135 57 15 25 17 60 17 260 l0 231 -60 0 -60 0 0 -214 c0 -173 -3 -216 -14 -225 -32 -27 -38 21 -34 263 l5 231 42 145 c22 80 58 204 78 275 l36 130 4 286 c5 311 2 329 -51 364 -25 17 -108 27 -141 18z"/>
 <path d="M6449 4694 c-19 -8 -44 -29 -55 -47 -18 -31 -19 -57 -19 -854 0 -815 0 -822 21 -850 60 -82 188 -82 248 0 20 26 21 44 24 258 l3 229 -60 0 -61 0 0 -206 c0 -234 -9 -273 -54 -228 -14 14 -16 99 -16 790 0 515 3 782 10 795 13 23 46 25 54 3 3 -9 6 -119 6 -245 l0 -229 61 0 60 0 -3 254 c-3 239 -4 256 -24 283 -43 58 -122 77 -195 47z"/>
 <path d="M7131 4693 c-19 -10 -44 -31 -55 -46 -21 -28 -21 -37 -24 -840 -2 -758 -1 -814 15 -846 30 -57 65 -76 142 -76 48 0 75 5 95 18 57 38 56 15 56 889 0 745 -1 805 -18 837 -24 49 -60 71 -123 77 -40 4 -63 1 -88 -13z m104 -897 c0 -735 -1 -800 -17 -809 -12 -8 -21 -7 -32 2 -14 12 -16 95 -16 800 0 831 -1 815 45 809 20 -3 20 -9 20 -802z"/>
 <path d="M8765 4355 c-30 -30 -32 -64 -4 -99 43 -54 129 -23 129 47 0 69 -77 101 -125 52z"/>
 <path d="M8765 4005 c-27 -26 -31 -54 -14 -88 16 -30 28 -37 67 -37 69 0 100 87 46 129 -35 28 -69 26 -99 -4z"/>
 <path d="M8760 3660 c-41 -41 -15 -114 45 -126 66 -12 110 66 69 124 -20 29 -85 31 -114 2z"/>
 <path d="M8783 3350 c-73 -29 -47 -140 32 -140 72 0 104 86 49 129 -29 23 -46 25 -81 11z"/>
 <path d="M8761 3004 c-12 -15 -21 -37 -21 -49 0 -12 9 -34 21 -49 42 -53 129 -19 129 50 0 67 -88 100 -129 48z"/>
 <path d="M3447 2783 c-4 -3 -7 -46 -7 -95 l0 -88 2080 0 2081 0 -3 93 -3 92 -2071 3 c-1139 1 -2074 -1 -2077 -5z"/>
 <path d="M8765 2705 c-30 -30 -32 -64 -4 -99 26 -33 79 -36 109 -6 30 30 27 83 -6 109 -35 28 -69 26 -99 -4z"/>
 <path d="M3440 2401 c0 -56 2 -101 4 -101 2 0 470 -144 1039 -319 l1035 -319 1041 321 1041 321 0 99 c0 90 -2 99 -17 94 -10 -2 -211 -63 -448 -135 -236 -71 -700 -211 -1030 -311 l-600 -181 -1015 310 c-558 171 -1023 313 -1032 316 -16 5 -18 -4 -18 -95z"/>
 <path d="M3786 2491 c5 -5 397 -127 871 -271 l862 -262 848 262 c466 144 852 266 858 271 5 5 -94 9 -244 9 l-254 0 -604 -185 -605 -184 -618 184 -618 185 -253 0 c-149 0 -249 -4 -243 -9z"/>
 <path d="M8783 2420 c-44 -18 -57 -86 -23 -120 12 -12 33 -20 55 -20 72 0 104 86 49 129 -29 23 -46 25 -81 11z"/>
 <path d="M8760 2108 c-62 -66 31 -164 103 -108 34 27 37 80 7 110 -27 27 -83 27 -110 -2z"/>
 <path d="M8765 1815 c-30 -30 -32 -64 -4 -99 42 -53 129 -21 129 48 0 68 -77 100 -125 51z"/>
 <path d="M8765 1545 c-50 -49 -19 -125 50 -125 72 0 104 86 49 129 -35 28 -69 26 -99 -4z"/>
 <path d="M8760 1270 c-46 -46 -12 -121 54 -123 65 -2 99 66 60 121 -20 29 -85 31 -114 2z"/>
 <path d="M8760 1020 c-64 -64 31 -166 103 -110 56 44 24 130 -48 130 -22 0 -43 -8 -55 -20z"/>
 </g>

</svg>